<svg width="956" height="170" viewBox="0 0 956 170" fill="none" xmlns="http://www.w3.org/2000/svg">
<path d="M848.285 110.463C848.285 100.325 849.806 91.4898 852.847 83.9583C856.034 76.2819 860.162 69.9091 865.231 64.8398C870.3 59.7706 876.094 55.9324 882.611 53.3253C889.274 50.7183 896.081 49.4147 903.033 49.4147C919.255 49.4147 932.073 54.4116 941.488 64.4053C950.902 74.2542 955.609 88.8103 955.609 108.074C955.609 109.956 955.537 112.057 955.392 114.374C955.247 116.547 955.102 118.502 954.957 120.24H881.525C882.249 126.902 885.363 132.189 890.867 136.099C896.371 140.01 903.758 141.965 913.027 141.965C918.965 141.965 924.759 141.458 930.407 140.445C936.201 139.286 940.908 137.91 944.529 136.317L948.874 162.605C947.136 163.474 944.819 164.343 941.922 165.212C939.025 166.081 935.766 166.805 932.146 167.384C928.669 168.108 924.904 168.688 920.848 169.122C916.793 169.557 912.737 169.774 908.682 169.774C898.399 169.774 889.419 168.253 881.742 165.212C874.211 162.17 867.91 158.042 862.841 152.828C857.917 147.469 854.223 141.169 851.761 133.927C849.444 126.685 848.285 118.864 848.285 110.463ZM924.324 98.0798C924.18 95.3279 923.673 92.6485 922.804 90.0414C922.079 87.4343 920.848 85.117 919.11 83.0892C917.517 81.0615 915.417 79.3959 912.81 78.0924C910.348 76.7888 907.234 76.1371 903.468 76.1371C899.847 76.1371 896.733 76.7888 894.126 78.0924C891.519 79.2511 889.346 80.8443 887.608 82.872C885.87 84.8997 884.494 87.2895 883.48 90.0414C882.611 92.6485 881.96 95.3279 881.525 98.0798H924.324Z" fill="#AFB64F"/>
<path d="M833.053 81.1339C830.157 80.4097 826.753 79.6856 822.842 78.9614C818.932 78.0924 814.732 77.6578 810.242 77.6578C808.214 77.6578 805.752 77.8751 802.855 78.3096C800.103 78.5993 798.003 78.9614 796.555 79.3959V166.732H764.184V58.5394C769.977 56.5117 776.784 54.6288 784.606 52.8908C792.572 51.0079 801.407 50.0665 811.111 50.0665C812.849 50.0665 814.949 50.2113 817.411 50.501C819.873 50.6458 822.336 50.9355 824.798 51.37C827.26 51.6597 829.722 52.0942 832.184 52.6735C834.647 53.108 836.747 53.6874 838.485 54.4116L833.053 81.1339Z" fill="#AFB64F"/>
<path d="M687.768 144.138C690.955 144.138 693.996 144.065 696.893 143.921C699.79 143.776 702.107 143.559 703.845 143.269V118.719C702.542 118.429 700.586 118.14 697.979 117.85C695.372 117.56 692.982 117.416 690.81 117.416C687.768 117.416 684.872 117.633 682.12 118.067C679.513 118.357 677.195 119.009 675.167 120.023C673.14 121.036 671.547 122.412 670.388 124.15C669.229 125.888 668.65 128.061 668.65 130.668C668.65 135.737 670.315 139.286 673.647 141.314C677.123 143.196 681.83 144.138 687.768 144.138ZM685.161 49.4147C694.72 49.4147 702.686 50.501 709.059 52.6735C715.432 54.8461 720.501 57.9601 724.267 62.0155C728.178 66.0709 730.93 70.9954 732.523 76.7889C734.116 82.5823 734.913 89.0276 734.913 96.1245V163.474C730.278 164.487 723.833 165.646 715.577 166.95C707.321 168.398 697.327 169.122 685.596 169.122C678.209 169.122 671.474 168.47 665.391 167.167C659.453 165.863 654.311 163.763 649.966 160.867C645.621 157.825 642.29 153.914 639.972 149.135C637.655 144.355 636.496 138.489 636.496 131.537C636.496 124.875 637.8 119.226 640.407 114.591C643.159 109.956 646.78 106.263 651.269 103.511C655.759 100.759 660.901 98.804 666.695 97.6453C672.488 96.3418 678.499 95.69 684.727 95.69C688.927 95.69 692.62 95.9073 695.807 96.3418C699.138 96.6315 701.817 97.066 703.845 97.6453V94.6038C703.845 89.1 702.18 84.6824 698.848 81.3512C695.517 78.02 689.724 76.3544 681.468 76.3544C675.964 76.3544 670.533 76.7889 665.174 77.6579C659.815 78.3821 655.18 79.4683 651.269 80.9167L647.142 54.8461C649.024 54.2667 651.342 53.6874 654.094 53.1081C656.99 52.3839 660.104 51.8045 663.436 51.37C666.767 50.7907 670.243 50.3562 673.864 50.0665C677.63 49.632 681.395 49.4147 685.161 49.4147Z" fill="#AFB64F"/>
<path d="M545.376 101.121C542.479 112.129 539.365 123.064 536.034 133.927C532.848 144.79 529.444 155.725 525.823 166.732H500.622C498.015 160.649 495.19 153.407 492.149 145.007C489.107 136.606 485.921 127.482 482.59 117.633C479.403 107.639 476.072 97.1384 472.596 86.1308C469.265 74.9784 466.006 63.7536 462.819 52.4563H496.928C498.087 57.6704 499.318 63.3915 500.622 69.6194C502.07 75.7026 503.518 82.003 504.967 88.5206C506.56 95.0383 508.153 101.628 509.746 108.291C511.484 114.808 513.222 121.109 514.961 127.192C516.843 120.819 518.654 114.302 520.392 107.639C522.275 100.977 524.013 94.4589 525.606 88.0861C527.344 81.5685 528.937 75.3405 530.386 69.4022C531.979 63.3191 533.355 57.6704 534.513 52.4563H557.977C559.136 57.6704 560.439 63.3191 561.888 69.4022C563.336 75.3405 564.857 81.5685 566.45 88.0861C568.043 94.4589 569.709 100.977 571.447 107.639C573.185 114.302 574.995 120.819 576.878 127.192C578.616 121.109 580.354 114.808 582.092 108.291C583.83 101.628 585.424 95.0383 586.872 88.5206C588.465 82.003 589.913 75.7026 591.217 69.6194C592.665 63.3915 593.969 57.6704 595.128 52.4563H628.802C625.616 63.7536 622.284 74.9784 618.808 86.1308C615.477 97.1384 612.146 107.639 608.815 117.633C605.628 127.482 602.442 136.606 599.255 145.007C596.214 153.407 593.39 160.649 590.782 166.732H565.581C561.96 155.725 558.412 144.79 554.935 133.927C551.459 123.064 548.273 112.129 545.376 101.121Z" fill="#AFB64F"/>
<path d="M302.221 81.1339C299.325 80.4097 295.921 79.6856 292.01 78.9614C288.1 78.0924 283.9 77.6578 279.41 77.6578C277.382 77.6578 274.92 77.8751 272.023 78.3096C269.271 78.5993 267.171 78.9614 265.723 79.3959V166.732H233.352V58.5394C239.145 56.5117 245.952 54.6288 253.774 52.8908C261.74 51.0079 270.575 50.0665 280.279 50.0665C282.017 50.0665 284.117 50.2113 286.579 50.501C289.041 50.6458 291.503 50.9355 293.966 51.37C296.428 51.6597 298.89 52.0942 301.352 52.6735C303.815 53.108 305.915 53.6874 307.653 54.4116L302.221 81.1339Z" fill="#AFB64F"/>
<path d="M202.925 166.732H170.554V52.4562H202.925V166.732ZM205.966 19.4335C205.966 25.3718 204.011 30.079 200.1 33.5551C196.335 36.8863 191.845 38.5519 186.631 38.5519C181.416 38.5519 176.854 36.8863 172.944 33.5551C169.178 30.079 167.295 25.3718 167.295 19.4335C167.295 13.4952 169.178 8.86042 172.944 5.52918C176.854 2.0531 181.416 0.315063 186.631 0.315063C191.845 0.315063 196.335 2.0531 200.1 5.52918C204.011 8.86042 205.966 13.4952 205.966 19.4335Z" fill="#AFB64F"/>
<path fill-rule="evenodd" clip-rule="evenodd" d="M107.229 137.493C109.257 142.996 115.361 161.518 116.955 166.732H153.236C147.588 150.511 142.229 135.52 137.159 121.761C132.09 108.001 127.093 95.0383 122.169 82.872C117.389 70.7057 112.609 59.1912 107.83 48.3285C103.05 37.3209 98.1982 26.603 93.2738 16.1747H60.9028C55.8335 26.603 50.9091 37.3209 46.1295 48.3285C41.4947 59.1912 36.7151 70.7057 31.7906 82.872C27.011 95.0383 22.0866 108.001 17.0173 121.761C11.948 135.52 6.58906 150.511 0.94043 166.732H36.1357C37.7289 161.518 40.7977 150.119 42.6806 144.615C44.7083 139.111 52.2607 116.954 54.1435 111.451L55.5812 107.205C57.8986 100.687 59.5993 94.4589 61.7718 88.5206C64.0892 82.5823 66.1893 77.151 68.0722 72.2265C69.9551 67.3021 71.6207 62.957 73.0691 59.1912C74.5174 55.4255 75.6037 52.4563 76.3279 50.2838C77.1969 52.4563 78.3556 55.4255 79.804 59.1912C81.2523 62.957 82.918 67.3021 84.8008 72.2265C86.8286 77.151 88.9287 82.5823 91.1012 88.5206C93.2738 94.4589 95.5188 100.687 97.8361 107.205L105.875 134.144L107.229 137.493Z" fill="#AFB64F"/>
<path d="M116.955 166.732C115.361 161.518 109.257 142.996 107.229 137.493C94.3195 137.493 87.214 123.296 83.6356 120.131C80.0572 116.967 75.0662 110.226 54.1435 111.451C52.2607 116.954 44.7083 139.111 42.6806 144.615C51.0274 132.039 65.05 138.16 69.2791 141.388C73.5081 144.615 78.9523 156.643 89.8679 161.643C100.784 166.643 106.134 166.602 116.955 166.732Z" fill="#AFB64F"/>
<path fill-rule="evenodd" clip-rule="evenodd" d="M418.261 137.493C420.288 142.996 426.393 161.518 427.986 166.732H464.267C458.619 150.511 453.26 135.52 448.191 121.761C443.121 108.001 438.124 95.0383 433.2 82.872C428.42 70.7057 423.641 59.1912 418.861 48.3285C414.082 37.3209 409.229 26.603 404.305 16.1747H371.934C366.865 26.603 361.94 37.3209 357.161 48.3285C352.526 59.1912 347.746 70.7057 342.822 82.872C338.042 95.0383 333.118 108.001 328.049 121.761C322.979 135.52 317.62 150.511 311.972 166.732H347.167C348.76 161.518 351.829 150.119 353.712 144.615C355.74 139.111 363.292 116.954 365.175 111.451L366.612 107.205C368.93 100.687 370.631 94.4589 372.803 88.5206C375.12 82.5823 377.221 77.151 379.103 72.2265C380.986 67.3021 382.652 62.957 384.1 59.1912C385.549 55.4255 386.635 52.4563 387.359 50.2838C388.228 52.4563 389.387 55.4255 390.835 59.1912C392.284 62.957 393.949 67.3021 395.832 72.2265C397.86 77.151 399.96 82.5823 402.132 88.5206C404.305 94.4589 406.55 100.687 408.867 107.205L416.906 134.144L418.261 137.493Z" fill="#AFB64F"/>
<path d="M427.986 166.732C426.393 161.518 420.288 142.996 418.261 137.493C405.351 137.493 398.245 123.296 394.667 120.131C391.088 116.967 386.097 110.226 365.175 111.451C363.292 116.954 355.74 139.111 353.712 144.615C362.059 132.039 376.081 138.16 380.31 141.388C384.539 144.615 389.984 156.643 400.899 161.643C411.815 166.643 417.165 166.602 427.986 166.732Z" fill="#AFB64F"/>
</svg>
